<svg xmlns="http://www.w3.org/2000/svg" width="24" height="24" viewBox="0 0 24 24"><defs><style>.a{fill:#231f20;}.b{fill:none;}</style></defs><g transform="translate(-1336 -2383)"><g transform="translate(1343.5 2386.605)"><path class="a" d="M1374.387,2437.016a.748.748,0,0,1-.531-.22l-7.635-7.635a.75.75,0,0,1,1.061-1.061l7.635,7.635a.75.75,0,0,1-.53,1.28Z" transform="translate(-1366.002 -2420.266)"/><path class="a" d="M1366.752,2406.537a.75.75,0,0,1-.531-1.28l7.615-7.615a.75.75,0,0,1,1.061,1.061l-7.615,7.615A.748.748,0,0,1,1366.752,2406.537Z" transform="translate(-1366.002 -2397.422)"/></g><rect class="b" width="24" height="24" transform="translate(1336 2383)"/></g></svg>