<svg xmlns="http://www.w3.org/2000/svg" width="24" height="24" viewBox="0 0 24 24"><defs><style>.a{fill:#666;}.b{fill:none;}</style></defs><g transform="translate(1.525 3.299)"><g transform="translate(5.938 4.165)"><path class="a" d="M3487.984,326.4a3.006,3.006,0,0,1,3.68-3.679l1.178-1.178a4.526,4.526,0,0,0-6.036,6.036Z" transform="translate(-3486.363 -321.096)"/><path class="a" d="M3501.455,332.507a3.007,3.007,0,0,1-3.681,3.681l-1.178,1.178a4.526,4.526,0,0,0,6.037-6.037Z" transform="translate(-3494.004 -328.737)"/></g><g transform="translate(0 0.904)"><path class="a" d="M3497.841,318.532l-1.083,1.083c1.86,1.464,2.862,3.273,2.862,4.1,0,1.513-3.319,6.277-9.113,6.277a9.986,9.986,0,0,1-3.5-.626l-1.166,1.166a11.485,11.485,0,0,0,4.669.98c6.616,0,10.633-5.415,10.633-7.8C3501.14,322.431,3499.964,320.258,3497.841,318.532Z" transform="translate(-3480.191 -315.921)"/><path class="a" d="M3465.592,321.2l1.083-1.082c-1.859-1.464-2.86-3.272-2.86-4.1,0-1.513,3.319-6.277,9.113-6.277a9.985,9.985,0,0,1,3.5.625l1.166-1.166a11.485,11.485,0,0,0-4.667-.979c-6.616,0-10.633,5.416-10.633,7.8C3462.295,317.307,3463.47,319.479,3465.592,321.2Z" transform="translate(-3462.295 -308.223)"/></g><path class="a" d="M3470.036,321.431a.746.746,0,0,1-.527-1.274l15.91-15.91a.746.746,0,0,1,1.055,1.055l-15.91,15.91A.744.744,0,0,1,3470.036,321.431Z" transform="translate(-3467.518 -304.028)"/></g><rect class="b" width="24" height="24"/></svg>