<svg xmlns="http://www.w3.org/2000/svg" xmlns:xlink="http://www.w3.org/1999/xlink" width="200" height="200" viewBox="0 0 200 200"><defs><style>.a{fill:#f7ab20;}.b{fill:url(#a);}.c{fill:none;}.d{fill:#fff;}</style><linearGradient id="a" x1="0.5" x2="0.5" y2="1" gradientUnits="objectBoundingBox"><stop offset="0" stop-color="#fff" stop-opacity="0.2"/><stop offset="0.695" stop-color="#fff" stop-opacity="0.067"/><stop offset="1" stop-color="#fff" stop-opacity="0"/></linearGradient></defs><g transform="translate(-120 -328)"><circle class="a" cx="100" cy="100" r="100" transform="translate(120 328)"/><circle class="b" cx="100" cy="100" r="100" transform="translate(120 328)"/><g transform="translate(-792 -14696)"><rect class="c" width="120" height="120" transform="translate(952 15064)"/><g transform="translate(959.974 15072.092)"><path class="d" d="M1010.879,15070.474a52.5,52.5,0,1,0,52.5,52.5A52.56,52.56,0,0,0,1010.879,15070.474Zm3.43,71.877a3.64,3.64,0,0,1-3.611,3.662h-.276a3.641,3.641,0,0,1-3.613-3.662v-.18a3.639,3.639,0,0,1,3.613-3.658h.276a3.638,3.638,0,0,1,3.611,3.658Zm6.4-21.055c-1.7,1.9-3.735,3.525-5.2,5.625a6.457,6.457,0,0,0-1.291,2.207c-.39,1.049-.149,2.5-.695,3.521a3.361,3.361,0,0,1-4.47,1.4c-2.055-.875-2.359-2.937-2.224-4.928a10.142,10.142,0,0,1,1.625-5.232,24.889,24.889,0,0,1,4.175-5c2.555-2.613,6.4-7.17,2.24-10.334a6.057,6.057,0,0,0-9.621,3.576c-.449,1.961-1.1,3.666-3.061,4.314a3.409,3.409,0,0,1-3.937-1.115c-2.406-3.285.688-9.18,3.123-11.6,6.241-6.209,18.7-4.689,22.08,3.844l-.034-.088c-.083-.205-.13-.326-.142-.359.017.047.078.2.142.359l.035.092c.1.26.151.381.168.422-.024-.059-.094-.234-.165-.416C1025.405,15112.526,1024.164,15117.433,1020.709,15121.3Z" transform="translate(-958.379 -15070.474)"/><path class="d" d="M1010.438,15100.153c-.065-.162-.125-.312-.142-.359C1010.309,15099.827,1010.356,15099.948,1010.438,15100.153Z" transform="translate(-945.4 -15063.144)"/></g></g></g></svg>