<svg xmlns="http://www.w3.org/2000/svg" xmlns:xlink="http://www.w3.org/1999/xlink" width="200" height="200" viewBox="0 0 200 200"><defs><style>.a{fill:#f7ab20;}.b{fill:url(#a);}.c{fill:none;}.d{fill:#fff;}</style><linearGradient id="a" x1="0.5" x2="0.5" y2="1" gradientUnits="objectBoundingBox"><stop offset="0" stop-color="#fff" stop-opacity="0.2"/><stop offset="0.695" stop-color="#fff" stop-opacity="0.067"/><stop offset="1" stop-color="#fff" stop-opacity="0"/></linearGradient></defs><g transform="translate(-120 -328)"><circle class="a" cx="100" cy="100" r="100" transform="translate(120 328)"/><circle class="b" cx="100" cy="100" r="100" transform="translate(120 328)"/><g transform="translate(-600 -14312)"><rect class="c" width="120" height="120" transform="translate(760 14680)"/><g transform="translate(767.526 14687.164)"><path class="d" d="M818.521,14685.731a52.5,52.5,0,1,0,52.5,52.5A52.559,52.559,0,0,0,818.521,14685.731Zm5.469,54.285,4.13,15.691a5,5,0,0,1-4.836,6.273h-8.6a5,5,0,0,1-4.892-6.031l3.369-16a2.425,2.425,0,0,0-.574-2.1,2.551,2.551,0,0,0-.477-.439,11.178,11.178,0,0,1-4.189-12.973c.011-.031.023-.064.034-.094.084-.238.188-.473.288-.711a11.318,11.318,0,0,1,4.833-5.246l.275-.141c.144-.074.292-.143.44-.211.226-.1.453-.2.679-.289l.045-.018a11.488,11.488,0,0,1,2.175-.582c.161-.029.323-.057.486-.076.138-.016.274-.027.41-.041.25-.02.5-.033.757-.037.084,0,.168-.006.25-.006.33,0,.656.02.979.049.146.016.29.035.435.057s.295.041.441.068a11.192,11.192,0,0,1,4.583,20.182,2.788,2.788,0,0,0-.479.451A2.435,2.435,0,0,0,823.99,14740.017Z" transform="translate(-766.021 -14685.731)"/></g></g></g></svg>