<svg xmlns="http://www.w3.org/2000/svg" width="254" height="156" viewBox="0 0 254 156"><defs><style>.a{fill:#fff2c1;}.b{fill:#a4cf25;}.c{fill:#ffd430;}.d{fill:#ffea98;}.e{fill:#6dbf67;}.f{fill:#5dc191;}.g{fill:#8acc85;}.h{fill:#66c766;}.i{fill:#5cab39;}.j{fill:#477d43;}.k{fill:#355b32;}.l{fill:none;stroke:#231f20;stroke-miterlimit:10;stroke-width:10px;}.m{fill:#3e6c3b;}.n{fill:#f37920;}.o{fill:#f8af79;}.p{fill:#f7a163;}.q{fill:#a7d9a4;}.r{fill:#00562c;}.s{fill:#006233;}.t{fill:#518d4c;}.u{fill:#99d295;}.v{opacity:0.05;}.w{fill:#ffd72c;}.x{fill:#f1c22b;}.y{fill:#743103;}</style></defs><g transform="translate(-511.154 -4145.982)"><path class="a" d="M641.734,4284.717s-32.258-138.735,103.928-138.735c117.554,0,111.375,143.516,111.375,143.516Z" transform="translate(-105.227)"/><g transform="translate(730.761 4242.733)"><path class="b" d="M1780.438,4801.785a21.933,21.933,0,0,0,8.738-4.292c3.982-3.164,8.757-9.229,8.9-20.157l-1.3-.017a27.554,27.554,0,0,1-2.714,12.152,21.251,21.251,0,0,1-13.859,11.034Z" transform="translate(-1780.198 -4764.799)"/><path class="b" d="M1849.263,4836.729a11,11,0,0,0,4.03-.872,10.023,10.023,0,0,0,5.812-6.681l-.779-.231a9.151,9.151,0,0,1-5.319,6.15,10.184,10.184,0,0,1-3.788.82l-.02.813Z" transform="translate(-1837.259 -4807.49)"/><path class="b" d="M1820.49,4820.467l.441-.478a11.253,11.253,0,0,1-2.362-3.543,10.071,10.071,0,0,1,.5-8.941l-.577-.3a10.8,10.8,0,0,0-.517,9.521A11.685,11.685,0,0,0,1820.49,4820.467Z" transform="translate(-1810.728 -4789.511)"/><ellipse class="c" cx="6.651" cy="6.653" rx="6.651" ry="6.653" transform="translate(11.951 0)"/><ellipse class="d" cx="4.085" cy="4.086" rx="4.085" ry="4.086" transform="translate(14.517 2.567)"/><ellipse class="c" cx="3.088" cy="3.089" rx="3.088" ry="3.089" transform="translate(19.875 16.12)"/><ellipse class="d" cx="1.897" cy="1.897" rx="1.897" ry="1.897" transform="translate(21.067 17.312)"/><ellipse class="c" cx="3.36" cy="3.361" rx="3.36" ry="3.361" transform="translate(5.311 11.496)"/><ellipse class="d" cx="2.064" cy="2.064" rx="2.064" ry="2.064" transform="translate(6.608 12.792)"/></g><path class="e" d="M751.642,4785.825a7.253,7.253,0,0,0-9.854.3,8.82,8.82,0,0,0-9.56,1.1c-.132-.043-.265-.083-.4-.119a8.262,8.262,0,0,0-12.55-1.725,9.266,9.266,0,0,0-15.534,5.912q-.138.031-.276.065a10.892,10.892,0,0,0-6.13,4.1C709.861,4790.986,729.153,4787.55,751.642,4785.825Z" transform="translate(-153.965 -526.676)"/><path class="f" d="M609.134,4815.424c0-12.622,47.351-22.7,102.419-22.7s124.8,7.642,121.78,31.812c-2.072,16.576-70.6-1.792-125.5,2.5C634.253,4832.794,609.134,4828.046,609.134,4815.424Z" transform="translate(-81.025 -534.805)"/><path class="g" d="M1580.194,4815.166l-.067-.028a7.243,7.243,0,0,0-2.313-.479,11.289,11.289,0,0,0-6.783-7.367q-.137-.053-.274-.1a9.578,9.578,0,0,0-15.19-8.024,8.541,8.541,0,0,0-13.092.186c-.143.02-.284.044-.425.072a9.116,9.116,0,0,0-9.669-2.331,7.5,7.5,0,0,0-12.873,1.967c-.066.171-.123.343-.176.516a5.985,5.985,0,0,0-6.566,3.935,6.56,6.56,0,0,0-.443,2.313c39.351,17.281,59.649,21.836,68.056,17.4C1580.377,4821.2,1580.336,4818.473,1580.194,4815.166Z" transform="translate(-827.918 -536.068)"/><path class="f" d="M609.134,4815.424c0-12.622,47.351-22.7,102.419-22.7s124.8,7.642,121.78,31.812c-2.072,16.576-70.6-1.792-125.5,2.5C634.253,4832.794,609.134,4828.046,609.134,4815.424Z" transform="translate(-81.025 -534.805)"/><path class="f" d="M609.134,4815.424c0-12.622,47.351-22.7,102.419-22.7s124.8,7.642,121.78,31.812c-2.072,16.576-70.6-1.792-125.5,2.5C634.253,4832.794,609.134,4828.046,609.134,4815.424Z" transform="translate(-81.025 -534.805)"/><path class="h" d="M609.134,4815.424c0-12.622,47.351-22.7,102.419-22.7s124.8,7.642,121.78,31.812c-2.072,16.576-70.6-1.792-125.5,2.5C634.253,4832.794,609.134,4828.046,609.134,4815.424Z" transform="translate(-81.025 -534.805)"/><path class="i" d="M609.134,4815.424c0-12.622,47.351-22.7,102.419-22.7s124.8,7.642,121.78,31.812c-2.072,16.576-70.6-1.792-125.5,2.5C634.253,4832.794,609.134,4828.046,609.134,4815.424Z" transform="translate(-81.025 -534.805)"/><path class="j" d="M609.134,4815.424c0-12.622,47.351-22.7,102.419-22.7s124.8,7.642,121.78,31.812c-2.072,16.576-70.6-1.792-125.5,2.5C634.253,4832.794,609.134,4828.046,609.134,4815.424Z" transform="translate(-81.025 -534.805)"/><ellipse class="k" cx="64.421" cy="5.589" rx="64.421" ry="5.589" transform="translate(581.186 4274.23)"/><path class="l" d="M1609.193,4627.517" transform="translate(-908.024 -398.191)"/><g transform="translate(538.477 4236.849)"><path class="m" d="M760.461,4807.355a30.889,30.889,0,0,1-12.31-6.045c-5.609-4.458-12.336-13-12.533-28.4l1.833-.023a38.825,38.825,0,0,0,3.823,17.12,29.94,29.94,0,0,0,19.524,15.544Z" transform="translate(-724.099 -4755.251)"/><path class="m" d="M717.145,4856.584a15.509,15.509,0,0,1-5.678-1.229,14.122,14.122,0,0,1-8.187-9.412l1.1-.326a12.89,12.89,0,0,0,7.493,8.664,14.338,14.338,0,0,0,5.336,1.156l.028,1.146Z" transform="translate(-697.356 -4815.392)"/><path class="m" d="M798.681,4833.673l-.622-.673a15.845,15.845,0,0,0,3.327-4.99,14.189,14.189,0,0,0-.711-12.6l.812-.425a15.21,15.21,0,0,1,.728,13.414A16.452,16.452,0,0,1,798.681,4833.673Z" transform="translate(-775.734 -4790.063)"/><ellipse class="n" cx="9.37" cy="9.372" rx="9.37" ry="9.372" transform="translate(1.123 0)"/><ellipse class="o" cx="5.755" cy="5.756" rx="5.755" ry="5.756" transform="translate(4.739 3.616)"/><g transform="translate(19.75 16.195)"><ellipse class="n" cx="4.734" cy="4.735" rx="4.734" ry="4.735"/><ellipse class="p" cx="2.907" cy="2.908" rx="2.907" ry="2.908" transform="translate(1.826 1.827)"/></g><g transform="translate(0 22.709)"><ellipse class="n" cx="4.351" cy="4.351" rx="4.351" ry="4.351"/><ellipse class="o" cx="2.672" cy="2.672" rx="2.672" ry="2.672" transform="translate(1.679 1.679)"/></g></g><path class="e" d="M579.649,4888.868c.013-.183.022-.366.022-.552a7.6,7.6,0,0,0-11.456-6.553,9.238,9.238,0,0,0-9.993-1.32c-.123-.077-.248-.152-.376-.223a8.655,8.655,0,0,0-12.313-4.949,9.705,9.705,0,0,0-17.289,2.05q-.148,0-.3,0a11.44,11.44,0,0,0-9.1,4.493,7.35,7.35,0,0,0-7.7,1.9c.558,10.955,19.979,16.041,72.846,13.616a6.648,6.648,0,0,0,.424-2.348A6.066,6.066,0,0,0,579.649,4888.868Z" transform="translate(0 -599.41)"/><path class="q" d="M731.074,4958.511a9.24,9.24,0,0,0-10.046-.819q-.19-.107-.386-.2a8.656,8.656,0,0,0-12.544-4.328,9.706,9.706,0,0,0-17.165,2.911c-.1,0-.2.006-.3.011a11.443,11.443,0,0,0-8.864,4.943,7.343,7.343,0,0,0-4.8.271c14.8,1.717,36,1.848,65.1.221a7.6,7.6,0,0,0-11-3.005Z" transform="translate(-137.122 -664.149)"/><g transform="translate(692.954 4276.494)"><ellipse class="r" cx="2.193" cy="8.748" rx="2.193" ry="8.748" transform="matrix(0.044, -0.999, 0.999, 0.044, 4.312, 22.6)"/><path class="e" d="M1614.148,4917.41a16.159,16.159,0,0,1-6.71,2.827,0,0,0,0,0-.006,0,6.608,6.608,0,0,1-3.477-.043,7.208,7.208,0,0,1-3.73-2.409,10.009,10.009,0,0,1-1.991-3.586c-.864-3.052-.1-6.02,1.387-6.437,1.2-.341,2.671.981,3.649,3.108,0-.459,0-.935.016-1.413.165-5.249,1.456-9.465,2.891-9.424,1.391.044,2.4,4.055,2.326,9.066,1.711-2.722,3.546-4.482,4.312-4.047.864.489.047,3.558-1.821,6.857a23.985,23.985,0,0,1-1.69,2.6c.605-.487,1.269-.974,1.986-1.447,3.793-2.493,7.5-3.538,8.292-2.339S1617.94,4914.917,1614.148,4917.41Z" transform="translate(-1591.615 -4900.035)"/><path class="c" d="M1579.846,4929.726a16.16,16.16,0,0,1-2.825,6.712,0,0,0,0,0,0,.006,6.611,6.611,0,0,1-2.518,2.4,7.211,7.211,0,0,1-4.351.883,10,10,0,0,1-3.93-1.174c-2.751-1.58-4.278-4.236-3.505-5.575.62-1.083,2.6-1.165,4.782-.326-.323-.325-.652-.669-.975-1.022-3.549-3.87-5.571-7.788-4.516-8.762,1.026-.94,4.551,1.222,8,4.86-.677-3.144-.6-5.685.257-5.909.959-.253,2.52,2.513,3.488,6.178a24.09,24.09,0,0,1,.606,3.039c.093-.771.227-1.583.409-2.423.972-4.434,2.9-7.774,4.3-7.469S1580.817,4925.292,1579.846,4929.726Z" transform="translate(-1561.726 -4917.474)"/></g><g transform="translate(743.42 4280.576)"><ellipse class="r" cx="4.633" cy="1.371" rx="4.633" ry="1.371" transform="translate(2.045 10.331) rotate(-7.842)"/><path class="s" d="M1877.286,4933.773a9.212,9.212,0,0,1-3.911,1.394,0,0,0,0,0,0,0,3.759,3.759,0,0,1-1.978-.137,4.109,4.109,0,0,1-2.046-1.491,5.7,5.7,0,0,1-1.018-2.105c-.394-1.765.136-3.43,1-3.62.694-.155,1.489.645,1.977,1.887.012-.261.031-.532.055-.8.263-2.982,1.133-5.341,1.949-5.271.79.07,1.237,2.385,1.032,5.236,1.062-1.494,2.163-2.437,2.585-2.165.476.306-.088,2.026-1.257,3.845a13.78,13.78,0,0,1-1.045,1.424c.36-.258.753-.514,1.177-.76,2.239-1.3,4.384-1.772,4.8-1.065S1879.525,4932.477,1877.286,4933.773Z" transform="translate(-1865.629 -4923.625)"/><path class="c" d="M1863.472,4933.842a9.221,9.221,0,0,1-1.824,3.73s0,0,0,0a3.77,3.77,0,0,1-1.51,1.284,4.114,4.114,0,0,1-2.505.363,5.708,5.708,0,0,1-2.2-.795c-1.515-.988-2.3-2.549-1.816-3.286.388-.6,1.515-.58,2.733-.032-.174-.2-.35-.4-.522-.614-1.9-2.316-2.921-4.612-2.289-5.132.614-.5,2.551.842,4.4,3.023-.285-1.811-.156-3.255.336-3.355.554-.114,1.354,1.512,1.787,3.629a13.736,13.736,0,0,1,.247,1.749c.078-.436.18-.894.311-1.366.7-2.493,1.9-4.332,2.687-4.113S1864.167,4931.349,1863.472,4933.842Z" transform="translate(-1853.35 -4927.998)"/></g><path class="t" d="M1622.875,4955.321a12.7,12.7,0,0,0-11.486-.273c-.169-.106-.341-.209-.516-.306a11.892,11.892,0,0,0-16.918-6.8,13.336,13.336,0,0,0-23.756,2.817c-.135,0-.271,0-.407,0a15.72,15.72,0,0,0-12.5,6.175,10.094,10.094,0,0,0-7.134.244C1585.29,4960.252,1613.6,4962.56,1622.875,4955.321Z" transform="translate(-859.202 -658.137)"/><path class="u" d="M1697.981,4955.784c-.1-.052-.194-.106-.294-.155a11.893,11.893,0,0,0-17.237-5.947,13.336,13.336,0,0,0-23.586,4q-.2.005-.407.015a15.723,15.723,0,0,0-12.179,6.792,10.066,10.066,0,0,0-5.092-.111C1669.027,4962.785,1691.689,4963.458,1697.981,4955.784Z" transform="translate(-932.827 -660.029)"/><path class="v" d="M1018.142,4414.062a25.655,25.655,0,0,0,2.026-10.937c0-13.671-13.322-28.68-32.012-35.75h0q-.587-.222-1.182-.434l0,0q-.592-.211-1.191-.411l-.01,0q-.6-.2-1.2-.388l-.011,0q-.6-.188-1.212-.365l-.014,0q-.609-.177-1.223-.342l-.014,0q-.615-.165-1.235-.318l-.014,0q-.621-.153-1.248-.295l-.011,0q-.628-.141-1.262-.271l-.007,0q-.636-.13-1.277-.247h0a62.36,62.36,0,0,0-11.217-1.023q-2.106,0-4.173.1h-.006q-.573.028-1.142.064l-.045,0q-.547.034-1.091.076l-.122.01q-.533.042-1.064.089l-.112.011q-1.109.1-2.2.233l-.049.006q-.53.064-1.056.135l-.124.017q-.517.07-1.03.146l-.11.017q-1.07.16-2.124.348l-.063.011q-.509.091-1.013.188l-.128.024-.5.1a1.038,1.038,0,0,0-.375-.562c-4.7-3.551-10.354-3.737-14.385-3.227,3.975-9.234-.592-14.966-3.5-17.646a.925.925,0,0,0-1.538.823c1.123,7.759-1.68,11.925-2.472,12.923l-.206-.087-.05-.021q-.179-.073-.359-.144l-.073-.029q-.172-.066-.345-.129l-.089-.033c-.112-.04-.224-.079-.336-.117l-.1-.034q-.165-.055-.329-.106l-.108-.034-.325-.1-.113-.032-.324-.087-.114-.029c-.108-.027-.216-.054-.324-.08l-.115-.026q-.163-.037-.325-.071l-.112-.022q-.165-.034-.33-.064l-.1-.018c-.113-.02-.225-.039-.338-.057l-.09-.013c-.118-.018-.236-.035-.353-.05l-.052-.006q-.815-.1-1.63-.126l-.065,0c-.1,0-.2,0-.3,0h-.145l-.273,0-.174,0c-.086,0-.171.007-.257.011l-.19.009-.245.018-.2.016-.236.023-.209.022-.23.029-.214.03-.224.035-.219.037-.218.041-.223.045-.212.045-.227.053-.206.05-.232.062-.2.055-.237.071c-.065.02-.129.039-.193.06-.081.026-.163.053-.245.081l-.183.062c-.086.03-.172.063-.258.095-.056.021-.112.04-.167.062-.1.038-.194.078-.291.117l-.131.053q-.211.089-.42.184l-.006,0q-.247.114-.488.235l-.151.078q-.172.089-.342.182l-.158.088q-.183.1-.362.211l-.109.065q-.23.141-.454.29l-.1.072q-.173.116-.342.238l-.141.1q-.157.116-.311.235l-.124.1q-.422.335-.819.7l-.112.1q-.146.135-.288.275l-.115.114q-.157.157-.31.319l-.065.068q-.187.2-.367.407c-.022.024-.042.05-.064.075q-.146.169-.287.343l-.094.117c-.088.11-.175.223-.261.335l-.076.1q-.33.443-.633.91l-.065.1q-.12.188-.235.379l-.067.112c-.087.147-.173.295-.256.445l-.02.035q-.14.255-.273.515l-.024.048q-.113.223-.22.448c-1.911-.767-6.388-3.245-9.906-10.454a.616.616,0,0,0-1.149.112c-.926,3.518-2.263,11.771,6.388,17.485-3.475,2.261-7.469,5.952-8.908,11.488a1.1,1.1,0,0,0,.35,1.108c1.369,1.188,5.58,3.678,12.741-2.024q.415,1.184.949,2.357.581,1.269,1.268,2.442c-4.326,4.486-6.283,9.672-4.743,14.2,1.513,4.449,6.086,7.343,12.089,8.314-2.58,3.215-2.66,9.016.132,14.381a19.243,19.243,0,0,0,1.887,2.944l-.28.146c2.525,4.853,8.215,6.891,12.709,4.552a8.558,8.558,0,0,0,2.4-1.856c3.669,4.252,10.266,5.283,15.685,2.153l-.2-.349a25.027,25.027,0,0,0,7.234-4.051l.1.009.214.019c.293.025.589.048.885.071l.542.042c.265.02.531.037.8.055.219.015.437.029.657.042l.753.043.729.038.72.033q.4.018.8.032l.682.024c.292.009.585.017.879.025.21.005.419.012.631.016.337.007.677.012,1.018.017l.518.008q.776.008,1.563.009h.034l1.232,0h.35l1.089-.006h.174l1.217-.011.315,0,1.011-.014.229,0,1.181-.021.266-.005.983-.021.242-.005,1.155-.03.2-.005.984-.031.242-.008,1.134-.041.083,0q.524-.02,1.039-.042l.221-.009q1.114-.049,2.191-.107l.189-.01q1.087-.06,2.136-.13l.149-.01q.511-.034,1.014-.071h.023l.837-.063a11.353,11.353,0,0,0,.7,1.239c.073.116.148.231.227.344,3.846,5.487,11.767,6.569,17.691,2.415l-.239-.341a25.455,25.455,0,0,0,4.011-2.3c5.352-3.752,8.632-9.018,9.072-13.735Q1017.933,4414.656,1018.142,4414.062Z" transform="translate(-315.416 -163.045)"/><path class="w" d="M920.488,4704.4s2.737-11.956,15.987-18.726,81.519-3.6,89.584.288,13.826,6.915,15.123,7.635c0,0-6.193-.864-7.057-1.008s7.2,4.322,7.777,11.956c0,0-5.041-4.321-5.617-4.609,0,0,4.609,11.38,2.592,12.964s-9.074,1.873-13.971,1.729-29.093-1.152-29.093-1.152l-4.033,5.618L984,4712.183l-2.3,8.787-8.642-9.363-.864,4.178-6.625-6.05s-25.061-3.6-27.221-4.033l-11.234,3.169s8.065-9.507,9.074-10.66C936.187,4698.21,924.665,4701.956,920.488,4704.4Z" transform="translate(-338.499 -443.016)"/><path class="x" d="M993.679,4636.077s-18.434-2.269-21.287-.864-4.5,2.269-4.5,2.269-.22-11.884,30.394-15.018c0,0-6.913-.864-7.681-1.08s7.461-3.349,20.19-3.458a47.973,47.973,0,0,0-3.182-4,71.11,71.11,0,0,1,10.534,2.7l21.836-.54-11.3,2.7,29.406.54s14.374.108,14.813,13.4v8.1s-6.8-1.837-8.778-1.837c0,0,1.1,7.023,1.317,7.671l-3.95-4.862a6.238,6.238,0,0,0-4.06-1.188c-2.524.108-11.192-1.4-14.594-2.269s-7.571,9.184-8.668,13.5c0,0-8.888-8.859-10.314-10.912,0,0-4.718,9.616-6.145,13.937,0,0-7.461-13.937-8.229-16.314,0,0-9.436,4.322-11.741,6.7,0,0,.988-6.375,1.317-6.915,0,0-8.12,7.347-8.449,7.887" transform="translate(-377.701 -386.955)"/><g transform="translate(577.386 4255.065)"><path class="n" d="M1017.839,4799.485H900.058a.719.719,0,0,1-.652-.466,78.388,78.388,0,0,1-5.5-20.674,1.8,1.8,0,0,1,1.643-2.116h126.79a1.8,1.8,0,0,1,1.643,2.109,70.686,70.686,0,0,1-5.5,20.7A.714.714,0,0,1,1017.839,4799.485Z" transform="translate(-893.891 -4776.229)"/><path class="y" d="M908.574,4859.14a84.057,84.057,0,0,0,2.975,8.439.719.719,0,0,0,.652.467h117.78a.713.713,0,0,0,.642-.445,66.37,66.37,0,0,0,3.066-8.461Z" transform="translate(-906.033 -4844.79)"/></g></g></svg>