<svg xmlns="http://www.w3.org/2000/svg" xmlns:xlink="http://www.w3.org/1999/xlink" width="200" height="200" viewBox="0 0 200 200"><defs><style>.a{fill:#f7ab20;}.b{fill:url(#a);}.c{fill:none;}.d{fill:#fff;}</style><linearGradient id="a" x1="0.5" x2="0.5" y2="1" gradientUnits="objectBoundingBox"><stop offset="0" stop-color="#fff" stop-opacity="0.2"/><stop offset="0.695" stop-color="#fff" stop-opacity="0.067"/><stop offset="1" stop-color="#fff" stop-opacity="0"/></linearGradient></defs><g transform="translate(-120 -328)"><circle class="a" cx="100" cy="100" r="100" transform="translate(120 328)"/><circle class="b" cx="100" cy="100" r="100" transform="translate(120 328)"/><g transform="translate(160 368)"><g transform="translate(0 0)"><rect class="c" width="120" height="120"/><g transform="translate(16.25 7.5)"><path class="c" d="M63.95,24.125C63.95,17.5,57.825,12,50.325,12S36.7,17.5,36.7,24.125V33.25H63.95V24.125Z" transform="translate(-7.075 -4.5)"/><path class="d" d="M88.375,34.75h-11V25.625C77.375,14.75,68,6,56.375,6S35.25,14.75,35.25,25.625V34.75h-11A11.2,11.2,0,0,0,13,46V99.75A11.2,11.2,0,0,0,24.25,111H88.375a11.2,11.2,0,0,0,11.25-11.25V46A11.2,11.2,0,0,0,88.375,34.75ZM42.75,25.625C42.75,19,48.875,13.5,56.375,13.5S70,19,70,25.625V34.75H42.75Zm29.75,51H63l5.25,8.625A3.67,3.67,0,0,1,65,90.875a3.929,3.929,0,0,1-3.25-1.75L56.125,80,50.5,89.125a4.007,4.007,0,0,1-5.25,1.25A3.705,3.705,0,0,1,44,85.25l5.25-8.625h-9.5a3.75,3.75,0,1,1,0-7.5h9.5L44,60.5a3.73,3.73,0,0,1,6.375-3.875L56,65.75l5.625-9.125A3.73,3.73,0,0,1,68,60.5l-5,8.625h9.5a3.75,3.75,0,0,1,0,7.5Z" transform="translate(-13 -6)"/></g></g></g></g></svg>