<svg xmlns="http://www.w3.org/2000/svg" width="24" height="24" viewBox="0 0 24 24"><defs><style>.a{fill:none;}.b{fill:#6dbf67;}</style></defs><g transform="translate(-1144 -14872)"><rect class="a" width="23.986" height="23.997" transform="translate(1144.014 14872.003)"/><rect class="a" width="23.986" height="23.997" transform="translate(1144.014 14872.003)"/><rect class="a" width="23.986" height="23.997" transform="translate(1144 14872)"/><g transform="translate(1145.635 14873.546)"><path class="b" d="M1161.034,14879.686a9,9,0,1,1-8.995,9,9.006,9.006,0,0,1,8.995-9m0-1.5a10.5,10.5,0,1,0,10.494,10.5,10.5,10.5,0,0,0-10.494-10.5Z" transform="translate(-1150.54 -14878.186)"/><g transform="translate(8.441 8.957)"><path class="b" d="M1190.55,14920.59a.75.75,0,0,1-.749-.75v-5.08a.75.75,0,1,1,1.5,0v5.08A.75.75,0,0,1,1190.55,14920.59Z" transform="translate(-1188.427 -14914.01)"/><path class="b" d="M1187.8,14935.824h-2.749a.749.749,0,1,1,0-1.5h2.749a.749.749,0,1,1,0,1.5Z" transform="translate(-1184.304 -14929.247)"/><path class="b" d="M1186.428,14915.51h-1.375a.75.75,0,0,1,0-1.5h1.375a.75.75,0,0,1,0,1.5Z" transform="translate(-1184.304 -14914.01)"/></g><circle class="b" cx="1.083" cy="1.083" r="1.083" transform="translate(9.482 5.319)"/></g></g></svg>