<svg xmlns="http://www.w3.org/2000/svg" width="254" height="156" viewBox="0 0 254 156"><defs><style>.a{fill:#fff2c1;}.b{fill:#3e6c3b;}.c{fill:#f37920;}.d{fill:#f8af79;}.e{fill:#f7a163;}.f{fill:#6dbf67;}.g{fill:#5dc191;}.h{fill:#8acc85;}.i{fill:#66c766;}.j{fill:#5cab39;}.k{fill:#477d43;}.l{fill:#355b32;}.m{fill:none;stroke:#231f20;stroke-miterlimit:10;stroke-width:10px;}.n{fill:#a7d9a4;}.o{fill:#00562c;}.p{fill:#ffd430;}.q{fill:#ffd72c;}.r{fill:#f1c22b;}.s{fill:#743103;}.t{fill:#662900;}.u{fill:#a4cf25;}.v{fill:#ffea98;}.w{fill:#006233;}.x{fill:#518d4c;}.y{fill:#99d295;}</style></defs><g transform="translate(-3261.154 -3963.982)"><path class="a" d="M3391.726,4102.718s-32.183-138.736,103.688-138.736c117.283,0,111.118,143.516,111.118,143.516Z" transform="translate(-105.277 0)"/><g transform="translate(3439.168 4034.234)"><path class="b" d="M4299.449,4478.867a23.707,23.707,0,0,0,7.7-7.17c3.135-4.52,6.19-12.3,2.94-23.667l-1.351.388a29.9,29.9,0,0,1,.968,13.443,23.008,23.008,0,0,1-10.907,15.755Z" transform="translate(-4297.668 -4434.502)"/><path class="b" d="M4357.653,4506.58a11.894,11.894,0,0,0,3.9-2.159,10.862,10.862,0,0,0,3.936-8.736l-.878,0a9.916,9.916,0,0,1-3.591,8.032,11.005,11.005,0,0,1-3.663,2.03l.232.849Z" transform="translate(-4346.11 -4473.909)"/><path class="b" d="M4317.9,4510.218l.308-.633a12.161,12.161,0,0,1-3.543-2.937,10.922,10.922,0,0,1-2.255-9.427l-.69-.133a11.707,11.707,0,0,0,2.423,10.032A12.619,12.619,0,0,0,4317.9,4510.218Z" transform="translate(-4308.145 -4475.071)"/><ellipse class="c" cx="7.183" cy="7.201" rx="7.183" ry="7.201" transform="translate(4.169 0)"/><ellipse class="d" cx="4.411" cy="4.422" rx="4.411" ry="4.422" transform="translate(6.94 2.778)"/><g transform="translate(0 15.16)"><ellipse class="c" cx="3.629" cy="3.638" rx="3.629" ry="3.638"/><ellipse class="e" cx="2.229" cy="2.234" rx="2.229" ry="2.234" transform="translate(1.4 1.404)"/></g><g transform="translate(16.427 15.516)"><ellipse class="c" cx="3.335" cy="3.343" rx="3.335" ry="3.343"/><ellipse class="d" cx="2.048" cy="2.053" rx="2.048" ry="2.053" transform="translate(1.287 1.29)"/></g></g><path class="f" d="M3501.517,4603.825a7.223,7.223,0,0,0-9.831.3,8.783,8.783,0,0,0-9.538,1.1c-.132-.043-.264-.083-.4-.119a8.231,8.231,0,0,0-12.521-1.725,9.24,9.24,0,0,0-15.5,5.912q-.137.031-.275.065a10.866,10.866,0,0,0-6.116,4.1C3459.833,4608.986,3479.079,4605.55,3501.517,4603.825Z" transform="translate(-154.039 -526.675)"/><path class="g" d="M3359.134,4633.424c0-12.622,47.242-22.7,102.183-22.7s124.513,7.642,121.5,31.812c-2.067,16.577-70.432-1.792-125.206,2.5C3384.2,4650.794,3359.134,4646.046,3359.134,4633.424Z" transform="translate(-81.064 -534.805)"/><path class="h" d="M4330.038,4633.166l-.066-.028a7.211,7.211,0,0,0-2.308-.479,11.28,11.28,0,0,0-6.768-7.367c-.091-.036-.182-.069-.273-.1a9.554,9.554,0,0,0-15.155-8.024,8.51,8.51,0,0,0-13.062.186c-.143.02-.284.044-.424.072a9.081,9.081,0,0,0-9.647-2.332,7.474,7.474,0,0,0-12.843,1.967c-.066.171-.123.343-.175.516a5.97,5.97,0,0,0-6.551,3.935,6.582,6.582,0,0,0-.441,2.313c39.261,17.281,59.512,21.836,67.9,17.4C4330.22,4639.2,4330.179,4636.473,4330.038,4633.166Z" transform="translate(-828.317 -536.068)"/><path class="g" d="M3359.134,4633.424c0-12.622,47.242-22.7,102.183-22.7s124.513,7.642,121.5,31.812c-2.067,16.577-70.432-1.792-125.206,2.5C3384.2,4650.794,3359.134,4646.046,3359.134,4633.424Z" transform="translate(-81.064 -534.805)"/><path class="g" d="M3359.134,4633.424c0-12.622,47.242-22.7,102.183-22.7s124.513,7.642,121.5,31.812c-2.067,16.577-70.432-1.792-125.206,2.5C3384.2,4650.794,3359.134,4646.046,3359.134,4633.424Z" transform="translate(-81.064 -534.805)"/><path class="i" d="M3359.134,4633.424c0-12.622,47.242-22.7,102.183-22.7s124.513,7.642,121.5,31.812c-2.067,16.577-70.432-1.792-125.206,2.5C3384.2,4650.794,3359.134,4646.046,3359.134,4633.424Z" transform="translate(-81.064 -534.805)"/><path class="j" d="M3359.134,4633.424c0-12.622,47.242-22.7,102.183-22.7s124.513,7.642,121.5,31.812c-2.067,16.577-70.432-1.792-125.206,2.5C3384.2,4650.794,3359.134,4646.046,3359.134,4633.424Z" transform="translate(-81.064 -534.805)"/><path class="k" d="M3359.134,4633.424c0-12.622,47.242-22.7,102.183-22.7s124.513,7.642,121.5,31.812c-2.067,16.577-70.432-1.792-125.206,2.5C3384.2,4650.794,3359.134,4646.046,3359.134,4633.424Z" transform="translate(-81.064 -534.805)"/><ellipse class="l" cx="64.273" cy="5.589" rx="64.273" ry="5.589" transform="translate(3331.025 4092.231)"/><path class="m" d="M4359.193,4445.517" transform="translate(-908.462 -398.191)"/><g transform="translate(3288.415 4054.849)"><path class="b" d="M3510.4,4625.355a30.8,30.8,0,0,1-12.281-6.046c-5.6-4.458-12.308-13-12.5-28.4l1.829-.023a38.9,38.9,0,0,0,3.814,17.12,29.879,29.879,0,0,0,19.479,15.544Z" transform="translate(-3474.125 -4573.251)"/><path class="b" d="M3467.114,4674.584a15.431,15.431,0,0,1-5.665-1.229,14.109,14.109,0,0,1-8.169-9.412l1.1-.326a12.883,12.883,0,0,0,7.476,8.664,14.292,14.292,0,0,0,5.323,1.155l.028,1.146Z" transform="translate(-3447.37 -4633.392)"/><path class="b" d="M3548.679,4651.674l-.62-.673a15.854,15.854,0,0,0,3.319-4.991,14.218,14.218,0,0,0-.709-12.6l.81-.425a15.24,15.24,0,0,1,.726,13.414A16.448,16.448,0,0,1,3548.679,4651.674Z" transform="translate(-3525.785 -4608.063)"/><ellipse class="c" cx="9.349" cy="9.372" rx="9.349" ry="9.372" transform="translate(1.121)"/><ellipse class="d" cx="5.742" cy="5.756" rx="5.742" ry="5.756" transform="translate(4.728 3.616)"/><g transform="translate(19.705 16.195)"><ellipse class="c" cx="4.723" cy="4.735" rx="4.723" ry="4.735"/><ellipse class="e" cx="2.901" cy="2.908" rx="2.901" ry="2.908" transform="translate(1.822 1.827)"/></g><g transform="translate(0 22.709)"><ellipse class="c" cx="4.34" cy="4.351" rx="4.34" ry="4.351"/><ellipse class="d" cx="2.666" cy="2.672" rx="2.666" ry="2.672" transform="translate(1.675 1.679)"/></g></g><path class="f" d="M3329.492,4706.868c.013-.183.022-.366.022-.552a7.579,7.579,0,0,0-11.429-6.553,9.2,9.2,0,0,0-9.97-1.32c-.123-.078-.247-.152-.375-.223a8.625,8.625,0,0,0-12.284-4.949,9.673,9.673,0,0,0-17.249,2.05c-.1,0-.2,0-.3,0a11.4,11.4,0,0,0-9.078,4.494,7.321,7.321,0,0,0-7.678,1.9c.557,10.954,19.933,16.041,72.678,13.616a6.663,6.663,0,0,0,.423-2.348A6.062,6.062,0,0,0,3329.492,4706.868Z" transform="translate(0 -599.41)"/><path class="n" d="M3480.949,4776.512a9.2,9.2,0,0,0-10.023-.819c-.126-.071-.255-.14-.385-.2a8.625,8.625,0,0,0-12.515-4.328,9.674,9.674,0,0,0-17.125,2.911q-.148,0-.3.011a11.41,11.41,0,0,0-8.844,4.942,7.315,7.315,0,0,0-4.791.271c14.771,1.717,35.922,1.848,64.955.222a7.571,7.571,0,0,0-10.975-3.006Z" transform="translate(-137.188 -664.149)"/><g transform="translate(3442.536 4094.494)"><ellipse class="o" cx="2.192" cy="8.728" rx="2.192" ry="8.728" transform="matrix(0.044, -0.999, 0.999, 0.044, 4.303, 22.6)"/><path class="f" d="M4364.11,4735.41a16.1,16.1,0,0,1-6.695,2.828,0,0,0,0,0-.005,0,6.578,6.578,0,0,1-3.469-.043,7.2,7.2,0,0,1-3.722-2.409,10.011,10.011,0,0,1-1.986-3.586c-.862-3.052-.1-6.02,1.384-6.437,1.2-.341,2.665.981,3.641,3.108,0-.458,0-.935.016-1.412.165-5.25,1.453-9.466,2.884-9.425,1.388.044,2.4,4.055,2.321,9.066,1.708-2.722,3.538-4.483,4.3-4.047.861.489.047,3.558-1.817,6.857a24.166,24.166,0,0,1-1.686,2.6c.6-.488,1.266-.975,1.981-1.448,3.784-2.493,7.485-3.537,8.273-2.339S4367.894,4732.917,4364.11,4735.41Z" transform="translate(-4341.63 -4718.035)"/><path class="p" d="M4329.8,4747.725a16.18,16.18,0,0,1-2.819,6.713s0,.006,0,.006a6.6,6.6,0,0,1-2.512,2.4,7.174,7.174,0,0,1-4.342.883,9.958,9.958,0,0,1-3.92-1.174c-2.744-1.58-4.269-4.236-3.5-5.575.618-1.083,2.59-1.165,4.771-.327-.323-.325-.651-.669-.973-1.021-3.541-3.871-5.558-7.789-4.505-8.763,1.023-.939,4.541,1.222,7.979,4.86-.676-3.144-.594-5.685.256-5.909.958-.253,2.514,2.513,3.48,6.179a24.076,24.076,0,0,1,.6,3.039c.092-.771.226-1.583.408-2.423.969-4.434,2.889-7.773,4.288-7.469S4330.773,4743.292,4329.8,4747.725Z" transform="translate(-4311.726 -4735.473)"/></g><path class="q" d="M3670.488,4522.4s2.73-11.956,15.95-18.727,81.331-3.6,89.378.288,13.794,6.915,15.088,7.635c0,0-6.179-.864-7.041-1.008s7.185,4.321,7.759,11.956c0,0-5.029-4.321-5.6-4.609,0,0,4.6,11.38,2.586,12.965s-9.053,1.872-13.938,1.729-29.026-1.152-29.026-1.152l-4.023,5.617-7.76-6.914-2.3,8.787-8.622-9.363-.862,4.178-6.61-6.051s-25-3.6-27.158-4.033l-11.208,3.169s8.047-9.507,9.053-10.659C3686.151,4516.211,3674.655,4519.956,3670.488,4522.4Z" transform="translate(-338.662 -443.016)"/><path class="r" d="M3743.62,4454.078s-18.391-2.269-21.238-.865-4.488,2.269-4.488,2.269-.219-11.884,30.324-15.017c0,0-6.9-.865-7.663-1.081s7.444-3.349,20.143-3.457a48.023,48.023,0,0,0-3.175-4,70.75,70.75,0,0,1,10.51,2.7l21.785-.54-11.276,2.7,29.339.541s14.341.108,14.779,13.4v8.1s-6.787-1.836-8.758-1.836c0,0,1.095,7.022,1.314,7.671l-3.941-4.862a6.212,6.212,0,0,0-4.051-1.188c-2.518.108-11.166-1.4-14.56-2.269s-7.554,9.184-8.648,13.5c0,0-8.867-8.859-10.291-10.912,0,0-4.707,9.616-6.13,13.937,0,0-7.444-13.937-8.21-16.314,0,0-9.415,4.322-11.714,6.7,0,0,.985-6.375,1.314-6.915,0,0-8.1,7.347-8.429,7.887" transform="translate(-377.883 -386.955)"/><g transform="translate(3327.234 4073.065)"><path class="c" d="M3767.553,4617.485H3650.044a.717.717,0,0,1-.651-.467,78.525,78.525,0,0,1-5.488-20.673,1.8,1.8,0,0,1,1.639-2.116h126.5a1.8,1.8,0,0,1,1.639,2.11,70.808,70.808,0,0,1-5.488,20.7A.712.712,0,0,1,3767.553,4617.485Z" transform="translate(-3643.891 -4594.229)"/><path class="s" d="M3658.574,4677.14a84.058,84.058,0,0,0,2.968,8.439.718.718,0,0,0,.651.467H3779.7a.711.711,0,0,0,.641-.445,66.466,66.466,0,0,0,3.059-8.461Z" transform="translate(-3656.039 -4662.79)"/></g><g transform="translate(3275.285 4002.228)"><path class="c" d="M3875.237,4349.088l-18.194,18.239,23.364,6.693,18.194-18.239Z" transform="translate(-3768.293 -4320.68)"/><path class="c" d="M3605.428,4271.993l-18.194,18.239,23.218,6.651,18.194-18.239Z" transform="translate(-3545.067 -4256.929)"/><path class="t" d="M3739.91,4310.419l-18.194,18.239,23.365,6.692,18.194-18.239Z" transform="translate(-3656.33 -4288.704)"/><path class="t" d="M3343.285,4191.406l-.242,8.888,13.625-13.659-4.958-1.42A6.614,6.614,0,0,0,3343.285,4191.406Z" transform="translate(-3343.036 -4184.956)"/><path class="t" d="M3470.1,4233.325l-18.194,18.239,23.364,6.693,18.194-18.239Z" transform="translate(-3433.104 -4224.953)"/><path class="c" d="M3356.633,4194.656l-13.625,13.659,0,.17a7.312,7.312,0,0,0,5.289,7.232l13.511,3.87L3380,4201.349Z" transform="translate(-3343 -4192.977)"/><path class="t" d="M4279.527,4464.611l-18.194,18.239,23.364,6.693,18.194-18.24Z" transform="translate(-4102.783 -4416.208)"/><path class="t" d="M4561.286,4545.128l-11.1-3.182-18.194,18.239,23.364,6.693,11.131-11.159.092-3.36A7.311,7.311,0,0,0,4561.286,4545.128Z" transform="translate(-4326.708 -4480.159)"/><path class="c" d="M4678.446,4621.522l-11.131,11.159,2.551.731a6.614,6.614,0,0,0,8.425-6.192Z" transform="translate(-4438.671 -4545.96)"/><path class="t" d="M4010.564,4387.757,3992.37,4406l23.072,6.609,18.194-18.239Z" transform="translate(-3880.256 -4352.656)"/><path class="c" d="M4144.2,4425.942l-18.194,18.239,23.364,6.693,18.194-18.239Z" transform="translate(-3990.82 -4384.232)"/><path class="c" d="M4414.854,4503.279l-18.194,18.239,23.364,6.693,18.194-18.239Z" transform="translate(-4214.745 -4448.184)"/></g><g transform="translate(3468.688 4064.026)"><path class="u" d="M4463.47,4651.933a24.828,24.828,0,0,0,9.9-4.874c4.511-3.594,9.922-10.481,10.08-22.891l-1.474-.019a31.354,31.354,0,0,1-3.075,13.8,24.085,24.085,0,0,1-15.7,12.53Z" transform="translate(-4463.198 -4609.931)"/><path class="u" d="M4541.631,4691.616a12.443,12.443,0,0,0,4.566-.99,11.374,11.374,0,0,0,6.585-7.587l-.883-.262a10.386,10.386,0,0,1-6.026,6.984,11.524,11.524,0,0,1-4.291.931l-.022.923Z" transform="translate(-4528.03 -4658.411)"/><path class="u" d="M4508.946,4673.148l.5-.543a12.771,12.771,0,0,1-2.676-4.023,11.46,11.46,0,0,1,.572-10.154l-.653-.343a12.287,12.287,0,0,0-.585,10.813A13.269,13.269,0,0,0,4508.946,4673.148Z" transform="translate(-4497.885 -4637.993)"/><ellipse class="p" cx="7.536" cy="7.555" rx="7.536" ry="7.555" transform="translate(13.54 0)"/><ellipse class="v" cx="4.628" cy="4.64" rx="4.628" ry="4.64" transform="translate(16.448 2.915)"/><ellipse class="p" cx="3.499" cy="3.508" rx="3.499" ry="3.508" transform="translate(22.518 18.306)"/><ellipse class="v" cx="2.149" cy="2.154" rx="2.149" ry="2.154" transform="translate(23.868 19.66)"/><ellipse class="p" cx="3.807" cy="3.817" rx="3.807" ry="3.817" transform="translate(6.018 13.055)"/><ellipse class="v" cx="2.338" cy="2.344" rx="2.338" ry="2.344" transform="translate(7.487 14.527)"/></g><g transform="translate(3492.885 4098.577)"><ellipse class="o" cx="4.622" cy="1.369" rx="4.622" ry="1.369" transform="translate(2.041 10.331) rotate(-7.842)"/><path class="w" d="M4627.265,4751.773a9.181,9.181,0,0,1-3.9,1.394s0,0,0,0a3.743,3.743,0,0,1-1.973-.137,4.1,4.1,0,0,1-2.041-1.491,5.714,5.714,0,0,1-1.016-2.106c-.393-1.765.136-3.43.995-3.62.692-.156,1.485.645,1.973,1.887.012-.261.03-.532.054-.8.262-2.982,1.131-5.341,1.944-5.271.789.07,1.234,2.385,1.03,5.236,1.059-1.495,2.157-2.438,2.579-2.166.475.307-.087,2.027-1.254,3.845a13.849,13.849,0,0,1-1.043,1.424c.359-.258.751-.514,1.174-.76,2.234-1.3,4.375-1.772,4.785-1.065S4629.5,4750.476,4627.265,4751.773Z" transform="translate(-4615.634 -4741.625)"/><path class="p" d="M4613.448,4751.841a9.226,9.226,0,0,1-1.82,3.73s0,0,0,0a3.76,3.76,0,0,1-1.507,1.285,4.091,4.091,0,0,1-2.5.363,5.684,5.684,0,0,1-2.194-.794c-1.512-.988-2.294-2.549-1.812-3.287.387-.6,1.512-.579,2.727-.032-.173-.2-.349-.4-.521-.613-1.892-2.317-2.914-4.613-2.284-5.133.613-.5,2.545.842,4.386,3.023-.284-1.811-.156-3.255.335-3.355.553-.114,1.35,1.512,1.783,3.629a13.793,13.793,0,0,1,.247,1.75c.078-.437.18-.894.31-1.367.694-2.492,1.894-4.332,2.681-4.113S4614.143,4749.349,4613.448,4751.841Z" transform="translate(-4603.351 -4745.998)"/></g><path class="x" d="M4372.707,4773.321a12.645,12.645,0,0,0-11.459-.273c-.169-.106-.34-.209-.515-.306a11.852,11.852,0,0,0-16.879-6.8,13.292,13.292,0,0,0-23.7,2.817c-.135,0-.271,0-.407,0a15.672,15.672,0,0,0-12.474,6.174,10.049,10.049,0,0,0-7.117.244C4335.209,4778.252,4363.45,4780.56,4372.707,4773.321Z" transform="translate(-859.616 -658.136)"/><path class="y" d="M4447.846,4773.784c-.1-.052-.194-.106-.293-.155a11.853,11.853,0,0,0-17.2-5.947,13.293,13.293,0,0,0-23.531,4q-.2.005-.406.015a15.676,15.676,0,0,0-12.151,6.791,10.02,10.02,0,0,0-5.08-.111C4418.958,4780.786,4441.568,4781.458,4447.846,4773.784Z" transform="translate(-933.277 -660.029)"/></g></svg>